<svg xmlns="http://www.w3.org/2000/svg" viewBox="0 0 324.26 124.97"><defs><style>.cls-1,.cls-2,.cls-3{fill:#fff;}.cls-2{stroke:#231f20;stroke-miterlimit:10;stroke-width:1.12px;}.cls-3{font-size:52px;font-family:MyriadPro-Regular, Myriad Pro;}</style></defs><title>logoAsset 3</title><g id="Layer_2" data-name="Layer 2"><g id="Layer_1-2" data-name="Layer 1"><rect class="cls-1" x="118.24" y="29.23" width="16.17" height="13.32"/><path class="cls-1" d="M63.68,55.5a19.36,19.36,0,0,1,6.38-6,27.82,27.82,0,0,1,8.71-3.25,49.78,49.78,0,0,1,9.73-1,65.48,65.48,0,0,1,9,.64,27.34,27.34,0,0,1,8.31,2.44A16.38,16.38,0,0,1,112,53.39a14.17,14.17,0,0,1,2.4,8.61V92.62a62.24,62.24,0,0,0,.45,7.63,13.76,13.76,0,0,0,1.6,5.47H100a22.17,22.17,0,0,1-.74-2.8,24.69,24.69,0,0,1-.4-2.9,21,21,0,0,1-9.11,5.58,36.65,36.65,0,0,1-10.7,1.6,29.06,29.06,0,0,1-7.86-1A18,18,0,0,1,64.81,103a14.79,14.79,0,0,1-4.26-5.47A18.4,18.4,0,0,1,59,89.66a17.28,17.28,0,0,1,1.76-8.26,14.79,14.79,0,0,1,4.56-5.17,20.34,20.34,0,0,1,6.38-2.91,69.73,69.73,0,0,1,7.22-1.53q3.66-.57,7.18-.92a41.55,41.55,0,0,0,6.26-1,11.1,11.1,0,0,0,4.33-2A4.4,4.4,0,0,0,98.18,64a8.54,8.54,0,0,0-.86-4.15,6.23,6.23,0,0,0-2.27-2.39,9,9,0,0,0-3.31-1.14,26.93,26.93,0,0,0-4-.29,12.25,12.25,0,0,0-7.51,2.06C78.37,59.49,77.3,61.77,77,65H60.83A18.8,18.8,0,0,1,63.68,55.5ZM95.62,78.33a27,27,0,0,1-3.31.86c-1.17.23-2.41.42-3.7.57s-2.58.34-3.87.56a31.28,31.28,0,0,0-3.58.91,11,11,0,0,0-3.08,1.54A7.33,7.33,0,0,0,76,85.22a7.9,7.9,0,0,0-.8,3.76,7.59,7.59,0,0,0,.8,3.64A6.17,6.17,0,0,0,78.14,95a9.33,9.33,0,0,0,3.19,1.2,20.93,20.93,0,0,0,3.75.33,14.36,14.36,0,0,0,7.41-1.59,10.82,10.82,0,0,0,3.87-3.82,12.23,12.23,0,0,0,1.53-4.49,31,31,0,0,0,.29-3.65v-6A7.27,7.27,0,0,1,95.62,78.33Z"/><rect class="cls-1" x="118.24" y="46.85" width="16.16" height="58.87"/><path class="cls-1" d="M167.2,55.91a11.34,11.34,0,0,0-6.49,1.76,14,14,0,0,0-4.27,4.55,19.55,19.55,0,0,0-2.33,6.15,33,33,0,0,0-.69,6.66,31.63,31.63,0,0,0,.69,6.49,19.88,19.88,0,0,0,2.22,6,12.72,12.72,0,0,0,4.16,4.38,11.39,11.39,0,0,0,6.37,1.71q5.8,0,8.94-3.25a15.29,15.29,0,0,0,3.93-8.71h15.6q-1.61,11.73-9.11,17.88T167,105.66a32.21,32.21,0,0,1-12.13-2.22,27,27,0,0,1-9.4-6.21,28.09,28.09,0,0,1-6-9.51,33,33,0,0,1-2.16-12.12,39.22,39.22,0,0,1,2-12.7,28.56,28.56,0,0,1,5.87-10.13,26.69,26.69,0,0,1,9.44-6.66,32.21,32.21,0,0,1,12.75-2.39,36.89,36.89,0,0,1,10.08,1.36,27.15,27.15,0,0,1,8.66,4.16A21.52,21.52,0,0,1,195,66H179.16Q177.56,55.91,167.2,55.91Z"/><path class="cls-1" d="M197.49,62A26.93,26.93,0,0,1,213.2,45.94a33.6,33.6,0,0,1,12.52-2.22,34.09,34.09,0,0,1,12.59,2.22A26.81,26.81,0,0,1,254.08,62a36.2,36.2,0,0,1,2.16,12.81,35.67,35.67,0,0,1-2.16,12.75,27.76,27.76,0,0,1-6.15,9.74,26.84,26.84,0,0,1-9.62,6.21,34.94,34.94,0,0,1-12.59,2.16,34.43,34.43,0,0,1-12.52-2.16,27,27,0,0,1-9.56-6.21,27.62,27.62,0,0,1-6.15-9.74,35.67,35.67,0,0,1-2.16-12.75A36.2,36.2,0,0,1,197.49,62Zm14.69,19.7a18.18,18.18,0,0,0,2.33,6A12.47,12.47,0,0,0,218.89,92a13.43,13.43,0,0,0,6.83,1.59,13.78,13.78,0,0,0,6.9-1.59,12.21,12.21,0,0,0,4.43-4.28,18.41,18.41,0,0,0,2.34-6,34,34,0,0,0,.68-6.89,35.07,35.07,0,0,0-.68-7,17.9,17.9,0,0,0-2.34-6,12.78,12.78,0,0,0-4.43-4.27,13.38,13.38,0,0,0-6.9-1.64,12.39,12.39,0,0,0-11.21,5.91,17.68,17.68,0,0,0-2.33,6,35.08,35.08,0,0,0-.69,7A34,34,0,0,0,212.18,81.69Z"/><path class="cls-1" d="M272.58,89.54a9.3,9.3,0,0,0,2.79,3.08,11.64,11.64,0,0,0,3.93,1.76,18,18,0,0,0,4.61.58,17.6,17.6,0,0,0,3.58-.4,12.52,12.52,0,0,0,3.42-1.25A7.78,7.78,0,0,0,293.47,91a6,6,0,0,0,1-3.59c0-2.43-1.62-4.25-4.84-5.47a97,97,0,0,0-13.5-3.64c-2.35-.53-4.65-1.16-6.88-1.88a23.45,23.45,0,0,1-6-2.84,13.83,13.83,0,0,1-4.21-4.44,12.54,12.54,0,0,1-1.6-6.55,17.72,17.72,0,0,1,2.22-9.34,16.41,16.41,0,0,1,5.87-5.75,25.85,25.85,0,0,1,8.19-3,50.55,50.55,0,0,1,9.34-.85,46.44,46.44,0,0,1,9.28.91,24.71,24.71,0,0,1,8,3.07,18.41,18.41,0,0,1,5.86,5.76,19.42,19.42,0,0,1,2.79,9H293.7c-.23-3.11-1.41-5.21-3.53-6.32a16.16,16.16,0,0,0-7.52-1.65,26.29,26.29,0,0,0-2.95.18,9.57,9.57,0,0,0-2.9.74,5.89,5.89,0,0,0-2.23,1.65,4.34,4.34,0,0,0-.91,2.9,4.44,4.44,0,0,0,1.59,3.53,12.39,12.39,0,0,0,4.16,2.22,52.87,52.87,0,0,0,5.86,1.54c2.21.45,4.45.95,6.72,1.48a67.27,67.27,0,0,1,6.89,1.93,22.84,22.84,0,0,1,6,3,14.6,14.6,0,0,1,4.21,4.67,13.72,13.72,0,0,1,1.59,6.89,17.87,17.87,0,0,1-8.42,16,25,25,0,0,1-8.6,3.36,50.46,50.46,0,0,1-9.85,1,48.4,48.4,0,0,1-10-1,26.55,26.55,0,0,1-8.71-3.41,19.59,19.59,0,0,1-6.26-6.32A19.8,19.8,0,0,1,256.13,85H271.5A8.87,8.87,0,0,0,272.58,89.54Z"/><path class="cls-1" d="M67.14,122.38a2.5,2.5,0,0,0,.81,1,3.41,3.41,0,0,0,1.23.52,6.69,6.69,0,0,0,1.52.16,4.74,4.74,0,0,0,1-.13,3.79,3.79,0,0,0,1-.42,2.65,2.65,0,0,0,.78-.75,1.84,1.84,0,0,0,.31-1.09,1.6,1.6,0,0,0-.22-.86,2.1,2.1,0,0,0-.58-.61,3.59,3.59,0,0,0-.78-.4,8,8,0,0,0-.84-.26l-2.62-.64a9,9,0,0,1-1-.33,2.84,2.84,0,0,1-.85-.53,2.5,2.5,0,0,1-.58-.8,2.75,2.75,0,0,1-.22-1.17,3.74,3.74,0,0,1,.16-1,2.87,2.87,0,0,1,.62-1.09,3.68,3.68,0,0,1,1.24-.86,5,5,0,0,1,2-.36,5.65,5.65,0,0,1,1.66.24,4,4,0,0,1,1.39.69,3.46,3.46,0,0,1,.94,1.14,3.39,3.39,0,0,1,.36,1.59H73.4a2.75,2.75,0,0,0-.31-1.18,2.71,2.71,0,0,0-.7-.84,3.43,3.43,0,0,0-1-.51,4.28,4.28,0,0,0-1.19-.17,5.13,5.13,0,0,0-1.12.12,3.07,3.07,0,0,0-.94.4,2.06,2.06,0,0,0-.65.72,2.27,2.27,0,0,0-.24,1.1,1.65,1.65,0,0,0,.14.72,1.62,1.62,0,0,0,.38.52,2.33,2.33,0,0,0,.57.34,4.64,4.64,0,0,0,.69.22l2.86.7a8.18,8.18,0,0,1,1.18.41,4,4,0,0,1,1,.59,2.58,2.58,0,0,1,.66.87,2.87,2.87,0,0,1,.24,1.23,4,4,0,0,1,0,.53,2.58,2.58,0,0,1-.2.7,3.26,3.26,0,0,1-.44.75,2.82,2.82,0,0,1-.79.68,4.52,4.52,0,0,1-1.25.5,7.58,7.58,0,0,1-1.78.19,7.32,7.32,0,0,1-1.92-.24A4.3,4.3,0,0,1,67,124a3.32,3.32,0,0,1-1-1.27,4.17,4.17,0,0,1-.28-1.87h1.12A3.31,3.31,0,0,0,67.14,122.38Z"/><path class="cls-1" d="M84.09,113v5.11h7V113H92.2v11.77H91.08V119h-7v5.7H83V113Z"/><path class="cls-1" d="M100.55,116.53a5.71,5.71,0,0,1,1-2,4.86,4.86,0,0,1,1.74-1.35,5.5,5.5,0,0,1,2.43-.51,5.42,5.42,0,0,1,2.42.51,4.92,4.92,0,0,1,1.73,1.35,5.71,5.71,0,0,1,1,2,7.9,7.9,0,0,1,0,4.65,5.76,5.76,0,0,1-1,1.94,5,5,0,0,1-1.73,1.34,5.42,5.42,0,0,1-2.42.51,5.5,5.5,0,0,1-2.43-.51,5,5,0,0,1-1.74-1.34,5.76,5.76,0,0,1-1-1.94,8.12,8.12,0,0,1,0-4.65Zm1,4.21a5.25,5.25,0,0,0,.79,1.67,4,4,0,0,0,1.38,1.17,4.2,4.2,0,0,0,2,.45,4.13,4.13,0,0,0,2-.45,4,4,0,0,0,1.37-1.17,5,5,0,0,0,.79-1.67,7,7,0,0,0,0-3.78,5,5,0,0,0-.79-1.66,3.89,3.89,0,0,0-1.37-1.17,4.13,4.13,0,0,0-2-.45,4.2,4.2,0,0,0-2,.45,3.92,3.92,0,0,0-1.38,1.17,5.2,5.2,0,0,0-.79,1.66,7.27,7.27,0,0,0,0,3.78Z"/><path class="cls-1" d="M119.32,113l2.67,10.3h0l2.87-10.3h1.4l2.88,10.3h0l2.68-10.3H133l-3.24,11.77h-1.19l-3-10.53h0l-3,10.53h-1.22L118.12,113Z"/><path class="cls-1" d="M141.71,113v11.77h-1.12V113Z"/><path class="cls-1" d="M151.66,113l6.86,10h0V113h1.12v11.77h-1.25l-6.86-10h0v10h-1.12V113Z"/><path class="cls-1" d="M177.53,124.74l-.15-2.15h0a4,4,0,0,1-.73,1.08,3.88,3.88,0,0,1-1,.75,4.31,4.31,0,0,1-1.12.42,6.46,6.46,0,0,1-1.25.13,5.5,5.5,0,0,1-2.43-.51,5,5,0,0,1-1.74-1.34,5.94,5.94,0,0,1-1-1.94,8.12,8.12,0,0,1,0-4.65,5.89,5.89,0,0,1,1-2,4.86,4.86,0,0,1,1.74-1.35,5.5,5.5,0,0,1,2.43-.51A6.22,6.22,0,0,1,175,113a4.47,4.47,0,0,1,1.46.74,4.4,4.4,0,0,1,1.09,1.22,4.71,4.71,0,0,1,.61,1.7h-1.12a2.5,2.5,0,0,0-.34-1,3.62,3.62,0,0,0-.77-.95,4,4,0,0,0-1.16-.7,4.07,4.07,0,0,0-1.52-.27,4.2,4.2,0,0,0-2,.45,3.8,3.8,0,0,0-1.37,1.17,5,5,0,0,0-.8,1.66,7.27,7.27,0,0,0,0,3.78,5.07,5.07,0,0,0,.8,1.67,3.9,3.9,0,0,0,1.37,1.17,4.2,4.2,0,0,0,2,.45,4.54,4.54,0,0,0,1.74-.32,3.74,3.74,0,0,0,1.29-.9,3.6,3.6,0,0,0,.79-1.37,5.07,5.07,0,0,0,.25-1.73h-4v-1h5v6Z"/><path class="cls-1" d="M205.66,113v1h-4.1v10.81h-1.12V113.93h-4.09v-1Z"/><path class="cls-1" d="M214.14,113v5.11h7V113h1.12v11.77h-1.12V119h-7v5.7H213V113Z"/><path class="cls-1" d="M239,113v1h-7v4.25h6.55v.95H232v4.65h7.08v1h-8.2V113Z"/><path class="cls-1" d="M257.78,113l2.66,10.3h0l2.87-10.3h1.4l2.88,10.3h0l2.69-10.3h1.12l-3.25,11.77H267l-3-10.53h0l-3,10.53h-1.21L256.57,113Z"/><path class="cls-1" d="M283.36,113,288,124.74h-1.21l-1.43-3.66H280l-1.42,3.66h-1.19L282.11,113Zm1.6,7.15-2.27-6-2.36,6Z"/><path class="cls-1" d="M292.76,113h1.31l3.88,6,3.85-6h1.34l-4.65,6.92v4.85h-1.12v-4.85Z"/><path class="cls-1" d="M36.52,41.55S44.68,50.34,47,66.84c.11.79.3,2.4.3,2.4s-.54-27.47,30.21-34.48V11.46S54.07,11.54,36.52,41.55Z"/><path class="cls-1" d="M10.41,17.83A51.59,51.59,0,0,0,.56,14.6V36.55c15.58,5.2,24.28,16.27,25.16,30.69l.14,29.89v1.62c0,11.46,11.71,22,21.56,26,0,0,0-56.14,0-56.36C45.14,51.88,34.19,28,10.41,17.83Z"/><path class="cls-2" d="M43.34,30.51,37,40.77s9.93,16.35,10.43,27.61C47.42,68.38,50.47,44.56,43.34,30.51Z"/><path class="cls-2" d="M48.2,115.59l-.78-47.21S43,24.13.56,14.6V36.55s6.51,1.28,15.56,8.7C40,64.83,48.2,115.59,48.2,115.59Z"/><text/><text class="cls-3" transform="translate(302.47 61.04)">®</text></g></g></svg>